<svg width="631" height="90" viewBox="0 0 631 90" fill="none" xmlns="http://www.w3.org/2000/svg">
<path fill-rule="evenodd" clip-rule="evenodd" d="M563.539 18.3185C576.335 18.3185 587.003 27.4256 589.417 39.5113H583.425V47.5744H589.775C588.347 60.8012 577.146 71.0999 563.539 71.0999C548.964 71.0999 537.149 59.2842 537.149 44.7092C537.149 30.1337 548.964 18.3185 563.539 18.3185ZM571.567 59.1505H581.816L569.461 26.9991H559.212L546.857 59.1505H557.106L558.744 54.8451H569.929L571.567 59.1505ZM561.318 48.1526L564.36 40.3372L567.355 48.1526H561.318Z" fill="#007CCB"/>
<path d="M607.275 40.7578H598.945V32.2406H593.049V40.7578H584.672V46.3274H593.049V54.8446H598.945V46.3274H607.275V40.7578Z" fill="black"/>
<path d="M630.999 40.7578H622.669V32.2406H616.773V40.7578H608.396V46.3274H616.773V54.8446H622.669V46.3274H630.999V40.7578Z" fill="black"/>
<path fill-rule="evenodd" clip-rule="evenodd" d="M559.212 26.9989L546.856 59.1509H557.106L558.744 54.8449H569.928L571.567 59.1509H581.816L569.461 26.9989H559.212ZM564.359 40.337L567.355 48.1524H561.318L564.359 40.337Z" fill="white"/>
<path d="M423.71 44.0401H430.849V30.4964L440.713 44.0401H447.853V18.7563H440.713V32.2999L430.849 18.7563H423.71V44.0401ZM469.529 44.0401H477.589L467.873 18.7563H459.814L450.097 44.0401H458.158L459.446 40.6542H468.241L469.529 44.0401ZM461.47 35.3913L463.862 29.2452L466.218 35.3913H461.47ZM497.095 44.0401H505.155L495.439 18.7563H487.379L477.663 44.0401H485.723L487.011 40.6542H495.807L497.095 44.0401ZM489.035 35.3913L491.427 29.2452L493.783 35.3913H489.035ZM520.207 44.4815C524.255 44.4815 527.936 42.7521 530.475 39.9913L525.249 35.4281C524.034 36.9738 522.232 38.0041 520.207 38.0041C516.748 38.0041 513.803 34.9861 513.803 31.3798C513.803 27.8097 516.748 24.7917 520.207 24.7917C522.194 24.7917 524.034 25.8225 525.212 27.3677L530.475 22.7678C527.936 20.0443 524.255 18.3143 520.207 18.3143C512.736 18.3143 506.443 24.2768 506.443 31.3798C506.443 38.4828 512.736 44.4815 520.207 44.4815Z" fill="black"/>
<path d="M434.41 61.784H440.539V66.8785C438.953 68.0893 436.651 68.8662 434.659 68.8662C430.055 68.8662 426.167 64.828 426.167 60.0439C426.167 55.2912 430.055 51.253 434.659 51.253C436.993 51.253 439.761 52.3089 441.317 53.9558L442.966 52.278C440.975 50.2589 437.615 49.0162 434.659 49.0162C428.749 49.0162 423.709 54.0484 423.709 60.0439C423.709 66.0394 428.749 71.1025 434.659 71.1025C437.615 71.1025 440.975 69.8294 442.966 67.8412V59.4848H434.41V61.784ZM464.275 56.223C464.275 52.2162 460.822 49.3894 456.404 49.3894H447.725V70.7298H450.152V63.0576H455.813L461.227 70.7298H463.996L458.458 62.8398C461.849 62.1253 464.275 59.5785 464.275 56.223ZM450.152 51.6875H455.969C459.453 51.6875 461.817 53.3653 461.817 56.223C461.817 59.0812 459.453 60.7584 455.969 60.7584H450.152V51.6875ZM485.335 70.7298H487.98L478.554 49.3894H475.91L466.484 70.7298H469.128L471.274 65.8844H483.189L485.335 70.7298ZM472.27 63.5853L477.248 52.3712L482.194 63.5853H472.27ZM491.9 70.7298H499.117C505.899 70.7298 510.69 66.2885 510.69 60.0439C510.69 53.8003 505.899 49.3894 499.117 49.3894H491.9V70.7298ZM494.327 68.5244V51.5943H499.117C504.468 51.5943 508.232 55.1048 508.232 60.0439C508.232 65.0144 504.468 68.5244 499.117 68.5244H494.327ZM530.475 51.6875V49.3894H515.138V70.7298H530.475V68.4312H517.596V61.0071H529.2V58.7085H517.596V51.6875H530.475Z" fill="black"/>
<path d="M412.096 0V89.9577H411.354V0H412.096Z" fill="black"/>
<path d="M0 23.2426H20.6677C25.1693 23.2426 28.539 24.3096 30.7856 26.453C33.0227 28.5964 34.1457 31.648 34.1457 35.6078C34.1457 39.6702 32.92 42.8524 30.4765 45.1361C28.0336 47.4292 24.2993 48.5713 19.2822 48.5713H12.4677V63.454H0V23.2426ZM12.4677 40.428H15.5283C17.9437 40.428 19.6378 40.0067 20.611 39.1737C21.5849 38.3407 22.0712 37.2738 22.0712 35.9723C22.0712 34.7091 21.6505 33.6416 20.7984 32.7614C19.9559 31.8819 18.365 31.4421 16.0247 31.4421H12.4677V40.428Z" fill="black"/>
<path d="M45.8831 43.7412L35.2121 42.6187C35.6149 40.7463 36.1949 39.2772 36.9533 38.2096C37.7118 37.1332 38.7972 36.2065 40.2293 35.42C41.2497 34.8496 42.6537 34.4092 44.4415 34.1007C46.2292 33.7916 48.1668 33.6329 50.2541 33.6329C53.5956 33.6329 56.2731 33.8196 58.3043 34.1944C60.326 34.5685 62.02 35.355 63.3674 36.5436C64.3227 37.3677 65.071 38.5373 65.6146 40.044C66.1666 41.5513 66.4381 42.9929 66.4381 44.3683V57.2484C66.4381 58.625 66.5222 59.7008 66.7001 60.4778C66.8683 61.2547 67.2526 62.2471 67.8326 63.4542H57.3776C56.9563 62.7053 56.6848 62.1438 56.5536 61.7505C56.4318 61.3573 56.3011 60.7493 56.1699 59.9163C54.7097 61.3198 53.2591 62.3216 51.8079 62.9207C49.8328 63.7257 47.5396 64.1285 44.9284 64.1285C41.4555 64.1285 38.8157 63.3229 37.019 61.704C35.2121 60.0941 34.3135 58.1005 34.3135 55.7411C34.3135 53.5231 34.9597 51.6977 36.2605 50.2656C37.5614 48.8335 39.9578 47.7666 43.4492 47.0738C47.6333 46.2318 50.3477 45.6417 51.5925 45.2956C52.8372 44.9585 54.1572 44.5187 55.5427 43.9668C55.5427 42.5907 55.2617 41.636 54.6912 41.0834C54.1291 40.5309 53.1368 40.26 51.7148 40.26C49.8889 40.26 48.5224 40.55 47.6053 41.1395C46.894 41.608 46.3229 42.4684 45.8831 43.7412ZM55.5427 49.5824C54.008 50.1343 52.407 50.6219 50.732 51.0521C48.4663 51.6601 47.0252 52.2598 46.4255 52.8494C45.7984 53.4574 45.4899 54.1502 45.4899 54.9272C45.4899 55.8163 45.7984 56.5466 46.4076 57.1081C47.0252 57.6696 47.9233 57.9507 49.1119 57.9507C50.3573 57.9507 51.5179 57.6416 52.5944 57.033C53.6613 56.4249 54.4191 55.685 54.8684 54.8054C55.3184 53.9259 55.5427 52.7838 55.5427 51.3797V49.5824Z" fill="black"/>
<path d="M69.9754 34.3065H80.44V39.0612C81.4508 36.993 82.4897 35.5704 83.5566 34.7929C84.6331 34.0166 85.9524 33.6329 87.5253 33.6329C89.1824 33.6329 90.9886 34.1472 92.9447 35.1771L89.4819 43.1051C88.162 42.5531 87.1136 42.2816 86.3456 42.2816C84.8861 42.2816 83.7439 42.8897 82.939 44.0974C81.7873 45.801 81.2073 48.9929 81.2073 53.6633V63.4542H69.9754V34.3065Z" fill="black"/>
<path d="M124.057 63.4546H113.621V58.7561C112.067 60.693 110.503 62.069 108.931 62.8931C107.349 63.7166 105.412 64.1289 103.109 64.1289C100.039 64.1289 97.6423 63.2117 95.8916 61.3673C94.151 59.533 93.2804 56.6962 93.2804 52.8683V34.3069H104.512V50.3687C104.512 52.1946 104.849 53.4954 105.524 54.2723C106.197 55.0397 107.143 55.4234 108.36 55.4234C109.68 55.4234 110.766 54.9091 111.617 53.8887C112.459 52.8588 112.881 51.0149 112.881 48.3566V34.3069H124.057V63.4546Z" fill="black"/>
<path d="M127.987 23.2426H139.164V63.454H127.987V23.2426Z" fill="black"/>
<path d="M153.589 18.3143C155.324 18.3143 157.018 18.7589 158.676 19.6522C160.328 20.5419 161.62 21.8194 162.542 23.4765C163.464 25.1377 163.927 26.8694 163.927 28.6661C163.927 30.4497 163.473 32.167 162.56 33.8098C161.652 35.4573 160.379 36.7349 158.736 37.6425C157.094 38.5554 155.376 39.0095 153.589 39.0095C151.796 39.0095 150.078 38.5554 148.435 37.6425C146.793 36.7349 145.515 35.4573 144.602 33.8098C143.69 32.167 143.231 30.4497 143.231 28.6661C143.231 26.8694 143.694 25.1377 144.621 23.4765C145.553 21.8194 146.845 20.5419 148.496 19.6522C150.153 18.7589 151.847 18.3143 153.589 18.3143ZM153.589 20.0269C152.133 20.0269 150.715 20.4011 149.339 21.1452C147.963 21.8893 146.886 22.9568 146.109 24.3424C145.332 25.7273 144.944 27.169 144.944 28.6661C144.944 30.1597 145.328 31.587 146.091 32.9535C146.853 34.32 147.92 35.3875 149.292 36.1501C150.663 36.9133 152.096 37.2964 153.589 37.2964C155.077 37.2964 156.509 36.9133 157.88 36.1501C159.251 35.3875 160.318 34.32 161.077 32.9535C161.835 31.587 162.213 30.1597 162.213 28.6661C162.213 27.169 161.826 25.7273 161.053 24.3424C160.281 22.9568 159.205 21.8893 157.824 21.1452C156.443 20.4011 155.03 20.0269 153.589 20.0269ZM149.044 34.3766V23.2563H152.873C154.182 23.2563 155.128 23.3589 155.713 23.5654C156.303 23.7707 156.766 24.1263 157.117 24.6413C157.463 25.1515 157.637 25.6945 157.637 26.2703C157.637 27.0801 157.347 27.7913 156.761 28.3904C156.181 28.9943 155.409 29.3308 154.445 29.406C154.838 29.5701 155.156 29.7658 155.39 29.9956C155.839 30.4306 156.387 31.1657 157.038 32.1999L158.395 34.3766H156.214L155.222 32.6259C154.445 31.2451 153.813 30.3793 153.336 30.0326C153.008 29.7802 152.531 29.6537 151.899 29.659H150.841V34.3766H149.044ZM150.841 28.1142H153.022C154.066 28.1142 154.777 27.9596 155.156 27.6505C155.535 27.342 155.727 26.9297 155.727 26.4249C155.727 26.0967 155.634 25.8025 155.451 25.5447C155.268 25.2827 155.015 25.0906 154.692 24.9647C154.365 24.8376 153.766 24.7726 152.886 24.7726H150.841V28.1142Z" fill="black"/>
<path d="M198.354 23.2426H203.328V44.9487C203.328 48.7175 202.9 51.7172 202.043 53.9387C201.186 56.1603 199.648 57.9612 197.419 59.3515C195.19 60.7514 192.271 61.4424 188.652 61.4424C185.138 61.4424 182.254 60.838 180.024 59.6231C177.787 58.4165 176.187 56.658 175.234 54.3582C174.273 52.0579 173.801 48.9275 173.801 44.9487V23.2426H178.766V44.9218C178.766 48.1841 179.071 50.5894 179.674 52.1277C180.278 53.6762 181.326 54.8649 182.796 55.705C184.272 56.5446 186.082 56.9647 188.215 56.9647C191.869 56.9647 194.474 56.1335 196.029 54.4716C197.577 52.8187 198.354 49.6359 198.354 44.9218V23.2426ZM211.173 60.8033V33.5968H215.316V37.4623C217.318 34.471 220.203 32.9756 223.97 32.9756C225.613 32.9756 227.117 33.2734 228.489 33.8588C229.87 34.4543 230.893 35.2229 231.574 36.1854C232.265 37.1389 232.737 38.2756 233.017 39.5872C233.183 40.4441 233.271 41.9401 233.271 44.0739V60.8033H228.655V44.2487C228.655 42.3768 228.48 40.9692 228.122 40.0329C227.764 39.1062 227.125 38.3633 226.217 37.8126C225.299 37.2523 224.232 36.9724 223 36.9724C221.034 36.9724 219.347 37.6025 217.912 38.8443C216.488 40.095 215.779 42.4556 215.779 45.9452V60.8033H211.173ZM240.522 28.551V23.2426H245.137V28.551H240.522ZM240.522 60.8033V33.5968H245.137V60.8033H240.522ZM259.871 60.8033L249.521 33.5968H254.389L260.229 49.8895C260.858 51.6468 261.435 53.4751 261.968 55.3727C262.379 53.9387 262.947 52.2155 263.681 50.195L269.73 33.5968H274.468L264.171 60.8033H259.871ZM297.312 52.0412L302.077 52.6266C301.325 55.4162 299.935 57.5763 297.907 59.1159C295.87 60.6458 293.275 61.4155 290.119 61.4155C286.141 61.4155 282.986 60.1917 280.661 57.7428C278.327 55.2939 277.165 51.8568 277.165 47.4322C277.165 42.8488 278.345 39.299 280.696 36.7713C283.056 34.2442 286.107 32.9756 289.865 32.9756C293.502 32.9756 296.474 34.218 298.773 36.6926C301.081 39.1677 302.234 42.6567 302.234 47.1434C302.234 47.4232 302.226 47.8344 302.208 48.3768H281.929C282.094 51.3669 282.943 53.6589 284.464 55.2414C285.985 56.8334 287.872 57.6288 290.145 57.6288C291.832 57.6288 293.275 57.1831 294.472 56.291C295.669 55.4078 296.614 53.9907 297.312 52.0412ZM282.182 44.5811H297.366C297.164 42.2981 296.579 40.5759 295.626 39.4386C294.157 37.6634 292.252 36.7713 289.918 36.7713C287.803 36.7713 286.02 37.4802 284.577 38.8968C283.135 40.3128 282.34 42.2116 282.182 44.5811ZM307.982 60.8033V33.5968H312.125V37.7159C313.183 35.7915 314.161 34.5152 315.062 33.9035C315.953 33.2913 316.941 32.9756 318.017 32.9756C319.572 32.9756 321.146 33.4745 322.754 34.4632L321.163 38.7476C320.045 38.0745 318.917 37.7422 317.789 37.7422C316.775 37.7422 315.874 38.0477 315.071 38.6522C314.267 39.2644 313.698 40.1028 313.357 41.1792C312.842 42.8142 312.588 44.6073 312.588 46.5568V60.8033H307.982ZM323.817 52.6791L328.371 51.9624C328.624 53.7895 329.341 55.1895 330.512 56.1681C331.675 57.1389 333.31 57.6288 335.416 57.6288C337.532 57.6288 339.105 57.192 340.128 56.3346C341.151 55.4693 341.665 54.4543 341.665 53.2997C341.665 52.2512 341.211 51.4367 340.302 50.8334C339.673 50.4229 338.1 49.9073 335.591 49.2772C332.217 48.4197 329.866 47.6858 328.563 47.0557C327.261 46.4351 326.264 45.5693 325.592 44.4671C324.918 43.3656 324.577 42.1501 324.577 40.8206C324.577 39.6051 324.857 38.4857 325.416 37.4534C325.967 36.4127 326.727 35.5564 327.68 34.8744C328.398 34.3487 329.376 33.8946 330.609 33.527C331.85 33.16 333.178 32.9756 334.594 32.9756C336.727 32.9756 338.598 33.2913 340.215 33.9035C341.832 34.5152 343.021 35.3464 343.79 36.3948C344.559 37.4534 345.084 38.8533 345.372 40.6106L340.871 41.2317C340.661 39.8318 340.067 38.7387 339.088 37.9522C338.109 37.1645 336.718 36.7713 334.927 36.7713C332.811 36.7713 331.299 37.1216 330.4 37.821C329.49 38.5203 329.035 39.342 329.035 40.2782C329.035 40.8815 329.228 41.415 329.604 41.8959C329.98 42.3948 330.565 42.7969 331.369 43.1287C331.833 43.2958 333.187 43.689 335.442 44.3007C338.703 45.176 340.975 45.8837 342.261 46.4435C343.554 46.9948 344.568 47.8075 345.302 48.8661C346.037 49.9241 346.403 51.2356 346.403 52.8098C346.403 54.3493 345.949 55.7928 345.058 57.1568C344.157 58.512 342.864 59.5616 341.177 60.3051C339.489 61.048 337.575 61.4155 335.442 61.4155C331.903 61.4155 329.21 60.681 327.357 59.2119C325.504 57.7428 324.324 55.5648 323.817 52.6791ZM352.064 28.551V23.2426H356.679V28.551H352.064ZM352.064 60.8033V33.5968H356.679V60.8033H352.064ZM373.921 56.6759L374.585 60.7514C373.292 61.0223 372.129 61.1626 371.107 61.1626C369.428 61.1626 368.134 60.9 367.208 60.3659C366.29 59.8414 365.644 59.1415 365.267 58.2763C364.892 57.4188 364.699 55.6 364.699 52.8366V37.1825H361.317V33.5968H364.699V26.854L369.289 24.0912V33.5968H373.921V37.1825H369.289V53.0896C369.289 54.4108 369.367 55.2503 369.524 55.6263C369.691 56.0022 369.953 56.2999 370.32 56.5267C370.687 56.7457 371.211 56.8591 371.894 56.8591C372.409 56.8591 373.082 56.7982 373.921 56.6759ZM378.384 71.2798L377.868 66.9513C378.882 67.2228 379.757 67.3618 380.509 67.3618C381.531 67.3618 382.353 67.1876 382.965 66.8463C383.585 66.5055 384.083 66.0335 384.477 65.4123C384.774 64.9582 385.237 63.8119 385.884 61.9842C385.971 61.7223 386.111 61.3547 386.294 60.8558L375.981 33.5968H380.945L386.609 49.3477C387.335 51.3502 388 53.4489 388.576 55.6525C389.109 53.5366 389.738 51.4726 390.474 49.4521L396.286 33.5968H400.893L390.551 61.267C389.442 64.2583 388.576 66.3134 387.964 67.4412C387.143 68.9628 386.208 70.0733 385.15 70.7822C384.083 71.4899 382.824 71.8485 381.356 71.8485C380.464 71.8485 379.477 71.6563 378.384 71.2798Z" fill="black"/>
</svg>
